<svg width="298" height="90" viewBox="0 0 298 90" fill="none" xmlns="http://www.w3.org/2000/svg">
<g clip-path="url(#clip0)">
<path d="M271.448 86.8423L259.339 73.341L247.335 86.8423H222.072L246.76 59.281L222.072 31.7066H248.12L260.346 45.104L272.115 31.7066H297.247L272.69 59.164L297.587 86.8423H271.448ZM173.573 86.8423V0H222.072V19.3618H194.115V31.7196H222.072V50.3408H194.115V67.4415H222.072V86.8423H173.573Z" fill="white"/>
<path d="M151.147 0V35.54H150.925C146.401 30.3682 140.739 28.5619 134.174 28.5619C120.719 28.5619 110.585 37.6581 107.028 49.665C102.975 36.4236 92.5137 28.315 76.9923 28.315C64.3869 28.315 54.4491 33.9287 49.2448 43.0898V31.7066H23.2102V19.3618H51.6246V0H0V86.8423H23.2102V50.3407H46.3419C45.6227 53.1475 45.2696 56.0323 45.2827 58.9301C45.2827 77.0314 59.2088 89.7661 76.9793 89.7661C91.9253 89.7661 101.785 82.788 106.989 70.0794H87.1002C84.4065 73.8998 82.3666 75.0303 76.9923 75.0303C70.755 75.0303 65.3807 69.6246 65.3807 63.2183H105.891C107.643 77.6032 118.928 90.013 134.41 90.013C141.092 90.013 147.198 86.7513 150.938 81.2417H151.16V86.8683H171.624V0H151.147ZM66.0215 50.6006C67.316 45.0779 71.618 41.4785 76.9923 41.4785C82.9028 41.4785 86.9956 44.974 88.0678 50.6006H66.0215ZM138.725 73.6269C131.18 73.6269 126.499 66.6488 126.499 59.3459C126.499 51.5492 130.578 44.0644 138.725 44.0644C147.185 44.0644 150.546 51.5622 150.546 59.3459C150.559 66.7398 146.989 73.6269 138.725 73.6269Z" fill="white"/>
</g>
<defs>
<clipPath id="clip0">
<rect width="297.6" height="90" fill="white"/>
</clipPath>
</defs>
</svg>
