<svg width="740" height="562" viewBox="0 0 740 562" fill="none" xmlns="http://www.w3.org/2000/svg">
<g id="landing-box_final">
<g id="XMLID 1">
<g id="Group">
<path id="right-flap" d="M733.7 64.6L609.5 164.1L609.2 163.9L369.5 106.1L493.6 3L733.7 64.6Z" fill="#E0E5FA"/>
<path id="Vector" d="M733.7 265.7L610.5 296.8L609.2 209.9V164.3L609.5 164.1L733.7 265.7Z" fill="#E0E5FA"/>
<path id="Vector_2" d="M610.5 296.8L611.1 336.7L609.2 337.2V297.1L610.5 296.8Z" fill="black"/>
<path id="Vector_3" d="M609.2 209.9L610.5 296.8L609.2 297.1V209.9Z" fill="black"/>
<path id="Vector_4" d="M609.5 164.1L609.2 164.3V163.9L609.5 164.1Z" fill="black"/>
<path id="Vector_5" d="M609.2 337.2V495.7L369.2 558.5L371.9 285.3L476.7 370.6L609.2 337.2Z" fill="#4D5C99"/>
<path id="Vector_6" d="M609.2 297.1V337.2L476.7 370.6L371.9 285.3L372.4 230.5L494.9 326L609.2 297.1Z" fill="#3E4B75"/>
<path id="Vector_7" d="M609.2 209.9V297.1L494.9 326L372.4 230.5V228L371.8 227.8L608.6 168.3L609.2 209.9Z" fill="#E0E5FA"/>
<path id="Vector_8" d="M609.2 164.3V209.9L608.6 168.3L371.8 227.8L370.8 227.5L604.3 165.2L607.2 165.9L609.2 164.3Z" fill="black"/>
<path id="Vector_9" d="M609.2 163.9V164.3L607.2 165.9L604.3 165.2L609.2 163.9Z" fill="black"/>
<path id="Vector_10" d="M609.2 163.9L604.3 165.2L369.2 108.5L371.2 108L369.2 106.4L369.5 106.1L609.2 163.9Z" fill="#535461"/>
<path id="Vector_11" d="M604.3 165.2L370.8 227.5L369.2 227.1V108.5L604.3 165.2Z" fill="#FFC7A6"/>
<path id="Vector_12" d="M372.4 228V230.5L369.6 228.3L371.8 227.8L372.4 228Z" fill="black"/>
<path id="Vector_13" d="M372.4 230.5L371.9 285.3L369.2 283.1V228.4L369.6 228.3L372.4 230.5Z" fill="black"/>
<path id="Vector_14" d="M371.9 285.3L369.2 558.5V283.1L371.9 285.3Z" fill="black"/>
<path id="Vector_15" d="M370.8 227.5L371.8 227.8L369.6 228.3L369.2 228L370.8 227.5Z" fill="black"/>
<path id="Vector_16" d="M371.2 108L369.2 108.5V106.4L371.2 108Z" fill="#535461"/>
<path id="Vector_17" d="M370.8 227.5L369.2 228V227.1L370.8 227.5Z" fill="#535461"/>
<path id="Vector_18" d="M369.2 228L369.6 228.3L369.2 228.4V228Z" fill="black"/>
<path id="Vector_19" d="M369.5 106.1L369.2 106.4V106L369.5 106.1Z" fill="black"/>
<path id="Vector_20" d="M369.2 283.1V558.5L129.1 496.9V337.5L260.5 370.6L368.6 282.6L369.2 283.1Z" fill="white"/>
<path id="Vector_21" d="M369.2 228.4V283.1L368.6 282.6V228.6L369.2 228.4Z" fill="black"/>
<path id="Vector_22" d="M369.2 228V228.4L368.6 228.6H368.4L369.2 228Z" fill="#535461"/>
<path id="Vector_23" d="M369.2 227.1V228L134 165.2H134.1L369.2 227.1Z" fill="#535461"/>
<path id="Vector_24" d="M369.2 108.5V227.1L134.1 165.2L369.2 108.5Z" fill="#D1A58F"/>
<path id="Vector_25" d="M369.2 106.4V108.5L367.2 108L369.2 106.4Z" fill="#535461"/>
<path id="Vector_26" d="M369.2 106.4L367.2 108L369.2 108.5L134.1 165.2L129.1 163.9L368.9 106.1L369.2 106.4Z" fill="#535461"/>
<path id="Vector_27" d="M369.2 106V106.4L368.9 106.1L369.2 106Z" fill="black"/>
<path id="Vector_28" d="M369.2 104V106L368.9 106.1L367.1 104.5L369.2 104Z" fill="black"/>
<path id="Vector_29" d="M247.3 198.1L129.1 168.4V164.3L131.1 165.9L134 165.2L369.2 228L368.4 228.6L247.3 198.1Z" fill="#535461"/>
<path id="Vector_30" d="M368.9 106.1L129.1 163.9V161.9L367.1 104.5L368.9 106.1Z" fill="#535461"/>
<path id="Vector_31" d="M368.6 228.6V282.6L260.5 370.6L129.1 337.5V296.6L246 326L368.4 228.6H368.6Z" fill="#CCCCCC"/>
<path id="Vector_32" d="M368.4 228.6L246 326L129.1 296.6V168.4L247.3 198.1L368.4 228.6Z" fill="#E0E5FA"/>
<path id="left-flap" d="M249.3 5L367.1 104.5L129.1 161.9V163.9L128.9 164.1L8 67.8L249.3 5Z" fill="#E0E5FA"/>
<path id="Vector_33" d="M129.1 163.9L134.1 165.2H134L129.1 163.9Z" fill="#535461"/>
<path id="Vector_34" d="M134 165.2L131.1 165.9L129.1 164.3V163.9L134 165.2Z" fill="#535461"/>
<path id="Vector_35" d="M129.1 296.6V337.5L126 336.7L126.6 296L129.1 296.6Z" fill="black"/>
<path id="Vector_36" d="M129.1 168.4V296.6L126.6 296L128.5 168.3L129.1 168.4Z" fill="#535461"/>
<path id="Vector_37" d="M129.1 164.3V168.4L128.5 168.3L126.6 296L6 265.7L128.9 164.1L129.1 164.3Z" fill="#E0E5FA"/>
<path id="Vector_38" d="M129.1 163.9V164.3L128.9 164.1L129.1 163.9Z" fill="#535461"/>
</g>
</g>
<g id="Group 1">
<path id="Vector_39" d="M369.5 106.1L369.2 106" stroke="black" stroke-width="5" stroke-miterlimit="10"/>
<path id="Vector_40" d="M369.2 108.5V227.1" stroke="black" stroke-width="5" stroke-miterlimit="10"/>
<path id="Vector_41" d="M367.1 104.5L369.2 104V106V106.4" stroke="black" stroke-width="5" stroke-miterlimit="10"/>
<path id="Vector_42" d="M604.3 165.2L369.2 108.5" stroke="black" stroke-width="5" stroke-miterlimit="10"/>
<path id="Vector_43" d="M369.2 106.4L369.5 106.1L493.6 3L733.7 64.6L609.5 164.1" stroke="black" stroke-width="5" stroke-miterlimit="10"/>
<path id="Vector_44" d="M134.1 165.2L369.2 108.5L371.2 108L369.2 106.4L368.9 106.1L367.1 104.5L249.3 5L8 67.8L128.9 164.1" stroke="black" stroke-width="5" stroke-miterlimit="10"/>
<path id="Vector_45" d="M370.8 227.5L369.2 227.1L134.1 165.2L129.1 163.9" stroke="black" stroke-width="5" stroke-miterlimit="10"/>
<path id="Vector_46" d="M129.1 337.5V496.9L369.2 558.5" stroke="black" stroke-width="5" stroke-miterlimit="10"/>
<path id="Vector_47" d="M369.2 228.4V228" stroke="black" stroke-width="5" stroke-miterlimit="10"/>
<path id="Vector_48" d="M609.2 337.2V495.7L369.2 558.5V283.1" stroke="black" stroke-width="5" stroke-miterlimit="10"/>
<path id="Vector_49" d="M368.6 228.6H368.4" stroke="black" stroke-width="5" stroke-miterlimit="10"/>
<path id="Vector_50" d="M126.6 296L126 336.7L129.1 337.5L260.5 370.6L368.6 282.6" stroke="black" stroke-width="5" stroke-miterlimit="10"/>
<path id="Vector_51" d="M610.5 296.8L611.1 336.7L609.2 337.2L476.7 370.6L371.9 285.3L369.2 283.1L368.6 282.6V228.6L369.2 228.4L369.6 228.3" stroke="black" stroke-width="5" stroke-miterlimit="10"/>
<path id="Vector_52" d="M129.1 163.9L128.9 164.1L6 265.7L126.6 296L129.1 296.6L246 326L368.4 228.6L369.2 228L134 165.2L129.1 163.9Z" stroke="black" stroke-width="5" stroke-miterlimit="10"/>
<path id="Vector_53" d="M609.2 163.9L609.5 164.1L733.7 265.7L610.5 296.8L609.2 297.1L494.9 326L372.4 230.5L369.6 228.3L369.2 228L370.8 227.5L604.3 165.2L609.2 163.9Z" stroke="black" stroke-width="5" stroke-miterlimit="10"/>
<path id="Vector_54" d="M247.3 198.1H248.3" stroke="black" stroke-width="5" stroke-miterlimit="10"/>
</g>
</g>
</svg>
