<svg width="1099" height="704" viewBox="0 0 1099 704" fill="none" xmlns="http://www.w3.org/2000/svg">
<g id="girl-form">
<path id="Vector" opacity="0.2" d="M912.5 79.5H66.5V703.5H912.5V79.5Z" fill="#6C63FF"/>
<path id="Vector_2" d="M0 0V34.06V675H849V34.06V0H0Z" fill="url(#paint0_linear)"/>
<path id="Vector_3" d="M840 42H12V663H840V42Z" fill="white"/>
<path id="Vector_4" d="M840 9H12V42H840V9Z" fill="#F5F5F5"/>
<path id="Vector_5" d="M36 33C40.4183 33 44 29.4183 44 25C44 20.5817 40.4183 17 36 17C31.5817 17 28 20.5817 28 25C28 29.4183 31.5817 33 36 33Z" fill="#FF5252"/>
<path id="Vector_6" d="M58 33C62.4183 33 66 29.4183 66 25C66 20.5817 62.4183 17 58 17C53.5817 17 50 20.5817 50 25C50 29.4183 53.5817 33 58 33Z" fill="#FFFF00"/>
<path id="Vector_7" d="M80 33C84.4183 33 88 29.4183 88 25C88 20.5817 84.4183 17 80 17C75.5817 17 72 20.5817 72 25C72 29.4183 75.5817 33 80 33Z" fill="#69F0AE"/>
<path id="Vector_8" d="M840 42H426V663H840V42Z" fill="#4D5C99"/>
<path id="Vector_9" d="M305 256H78V281H305V256Z" fill="url(#paint1_linear)"/>
<path id="Vector_10" d="M741 256H514V281H741V256Z" fill="url(#paint2_linear)"/>
<path id="Vector_11" d="M302 259H82V277H302V259Z" fill="#4D5C99"/>
<path id="Vector_12" d="M349 312H47V328H349V312Z" fill="url(#paint3_linear)"/>
<path id="Vector_13" d="M785 312H483V328H785V312Z" fill="url(#paint4_linear)"/>
<path id="Vector_14" d="M785 337H483V353H785V337Z" fill="url(#paint5_linear)"/>
<path id="Vector_15" d="M785 362H483V378H785V362Z" fill="url(#paint6_linear)"/>
<path id="Vector_16" d="M785 387H483V403H785V387Z" fill="url(#paint7_linear)"/>
<path id="Vector_17" d="M785 412H483V428H785V412Z" fill="url(#paint8_linear)"/>
<path id="Vector_18" d="M785 412H483V428H785V412Z" fill="url(#paint9_linear)"/>
<path id="Vector_19" d="M349 337H47V353H349V337Z" fill="url(#paint10_linear)"/>
<path id="Vector_20" d="M349 362H47V378H349V362Z" fill="url(#paint11_linear)"/>
<path id="Vector_21" d="M349 387H47V403H349V387Z" fill="url(#paint12_linear)"/>
<path id="Vector_22" d="M349 412H47V428H349V412Z" fill="url(#paint13_linear)"/>
<path id="Vector_23" d="M347 314H50V325H347V314Z" fill="#4D5C99"/>
<path id="Vector_24" d="M347 350V339H198.5H50V350H347Z" fill="#4D5C99"/>
<path id="Vector_25" d="M347 364H50V375H347V364Z" fill="#4D5C99"/>
<path id="Vector_26" d="M347 389H50V400H347V389Z" fill="#4D5C99"/>
<path id="Vector_27" d="M347 414H50V425H347V414Z" fill="#4D5C99"/>
<path id="Vector_28" d="M737 259H517V277H737V259Z" fill="white"/>
<path id="Vector_29" d="M782 314H485V325H782V314Z" fill="white"/>
<path id="Vector_30" d="M782 339H485V350H782V339Z" fill="white"/>
<path id="Vector_31" d="M782 364H485V375H782V364Z" fill="white"/>
<path id="Vector_32" d="M782 389H485V400H782V389Z" fill="white"/>
<path id="Vector_33" d="M782 414H485V425H782V414Z" fill="white"/>
<path id="Vector_34" d="M666 492H588V520H666V492Z" fill="#FFC7A6"/>
<g id="girl-with-pen">
<path id="Vector_35" d="M1098.83 146.21C1098.86 145.817 1098.86 145.423 1098.83 145.03C1098.47 140.15 1093.83 136.62 1089.23 134.74C1084.63 132.86 1079.49 131.94 1075.42 129.09C1068.54 124.27 1066.42 115.26 1065.8 107.02C1065.61 104.46 1065.53 101.9 1065.52 99.33C1065.51 96.76 1065.68 93.92 1065.92 91.22C1066.32 86.74 1066.98 82.1 1066.92 77.61C1067.15 73.3259 1066.33 69.0503 1064.52 65.16C1060.44 57.1 1051.28 52.98 1042.8 49.47C1039.54 48.12 1036.2 46.75 1032.66 46.6C1028.92 46.44 1025.28 47.65 1021.74 48.85C1016.12 50.75 1010.42 53.22 1004.61 54.51C1001.35 55.23 997.78 54.69 994.61 55.84C988.39 58.12 987.06 63.71 987.16 69.84C987.16 70.23 987.16 70.61 987.16 71C986.54 70.43 985.9 69.89 985.25 69.37L984.87 69.07C984.203 68.53 983.493 68.02 982.74 67.54L982.38 67.31C980.852 66.3196 979.251 65.4471 977.59 64.7L977.34 64.59C976.507 64.2233 975.66 63.89 974.8 63.59L974.64 63.53C972.86 62.9096 971.034 62.4281 969.18 62.09V62.09C963.337 61.0072 957.318 61.3725 951.648 63.1542C945.979 64.9358 940.833 68.0794 936.66 72.31L929.79 79.31C898.56 72.31 897.16 99.44 897.16 99.44L897.39 99.39L897.31 99.58C898.021 103.013 898.919 106.405 900 109.74L658.83 356.07L634.45 431.63L648.14 426.75L710.68 404.41L934.62 175.65C951.38 187.56 968.8 203.52 968.8 203.52C968.8 203.52 958 209.23 962 235.39C966.89 267.39 959.54 312.94 959.54 312.94V342.4L960.92 342.02C960.75 343.02 960.57 344.02 960.4 345.17C958.122 359.972 957.833 375.012 959.54 389.89C963.24 421.15 978.02 463.83 978.02 463.83C978.02 463.83 983.56 478.83 984.8 490.88C984.995 493.26 985.527 495.6 986.38 497.83C989.161 504.44 990.628 511.529 990.7 518.7C990.7 531.78 992.41 551.41 1000.2 571.44C1006.45 587.52 1008.76 596.94 1009.45 602.44C1005.02 608.3 999.23 614.69 994.66 615.33C986.04 616.53 969.4 617.73 980.49 632.16C980.877 632.655 981.309 633.114 981.78 633.53C973.36 634.89 964.1 637.89 973.1 649.59C984.19 664.02 1049.49 657.41 1049.49 657.41C1049.49 657.41 1049.91 649.41 1049.49 640.59C1054.07 640.27 1056.9 639.98 1056.9 639.98C1056.9 639.98 1058.75 605.11 1050.74 600.9C1049.26 601.061 1047.81 601.418 1046.42 601.96C1045.56 597.14 1044.9 591.15 1044.49 586.71L1047.66 586.47V534.17C1047.66 534.17 1043.96 501.71 1030.41 487.28C1028.68 485.478 1027.19 483.461 1025.98 481.28C1026.08 477.11 1026.09 471.28 1026.04 464.55C1026.58 463.64 1027.22 462.795 1027.95 462.03C1027.95 462.03 1035.34 453.03 1060.6 395.9C1075.5 362.21 1072.18 342.76 1066.95 332.46C1065.95 328.8 1063.35 318.35 1059.95 299.11C1055.64 274.46 1060.57 250.41 1060.57 250.41C1060.57 250.41 1076.57 208.93 1083.98 192.1C1085.7 188.046 1086.41 183.638 1086.06 179.25C1087.99 177.84 1088.92 175.49 1089.75 173.25L1097.34 153C1098.16 150.81 1099 148.53 1098.82 146.2L1098.83 146.21ZM995.75 109.75C996.575 111.037 997.494 112.26 998.5 113.41V113.41C998.5 113.41 997.37 112.23 995.5 110.33C995.59 110.14 995.67 109.94 995.75 109.75ZM958.43 151.32L979.32 129.98C986.54 136.58 994.27 143.32 1000.73 148.87C1000.11 151.714 999.299 154.511 998.29 157.24C995.49 158.63 991.79 159.08 987.29 156.63C980.16 152.78 967 151.64 958.43 151.32Z" fill="url(#paint14_linear)"/>
<path id="Vector_36" d="M941.62 72.57C941.62 72.57 926.13 81.51 930.9 94.07C930.9 94.07 946.99 98.84 953.54 110.76C960.09 122.68 1010.75 165.58 1010.75 165.58L1047.69 147.07C1047.69 147.07 1034.84 129.91 994.19 117.93C994.19 117.93 970.19 92.24 961.88 87.48C953.57 82.72 941.62 72.57 941.62 72.57Z" fill="#FEBDD5"/>
<path id="Vector_37" opacity="0.05" d="M941.62 72.57C941.62 72.57 926.13 81.51 930.9 94.07C930.9 94.07 946.99 98.84 953.54 110.76C960.09 122.68 1010.75 165.58 1010.75 165.58L1047.69 147.07C1047.69 147.07 1034.84 129.91 994.19 117.93C994.19 117.93 970.19 92.24 961.88 87.48C953.57 82.72 941.62 72.57 941.62 72.57Z" fill="black"/>
<path id="Vector_38" d="M665.62 358.44L934.4 77.07C940.752 70.4292 949.481 66.5812 958.668 66.3712C967.856 66.1612 976.751 69.6064 983.4 75.95C990.041 82.3024 993.889 91.0308 994.099 100.218C994.309 109.406 990.864 118.301 984.52 124.95L715.78 406.36L642.04 433.36L665.62 358.44Z" fill="#6C63FF"/>
<path id="Vector_39" opacity="0.1" d="M968.75 70.96C975.391 77.3124 979.239 86.0408 979.449 95.2283C979.659 104.416 976.214 113.311 969.87 119.96L701.1 401.33L645.74 421.58L642 433.34L715.74 406.34L984.55 125.07C990.894 118.421 994.339 109.526 994.129 100.338C993.919 91.1508 990.071 82.4224 983.43 76.07V76.07C977.893 70.7645 970.747 67.4537 963.12 66.66C965.138 67.8982 967.024 69.339 968.75 70.96V70.96Z" fill="white"/>
<path id="Vector_40" d="M665.62 358.45L715.78 406.36L655.28 428.5L642.04 433.34L650.43 406.71L665.62 358.45Z" fill="#EFC8C4"/>
<path id="Vector_41" d="M650.43 406.7C652.266 407.057 654.017 407.759 655.59 408.77C657.41 410.08 658.73 412.35 658.23 414.53C657.738 415.888 657.036 417.16 656.15 418.3C655.246 419.825 654.699 421.534 654.548 423.3C654.397 425.067 654.648 426.844 655.28 428.5L642 433.34L650.43 406.7Z" fill="#727A9C"/>
<path id="Vector_42" d="M1038.16 580.87C1038.16 580.87 1039.95 607.09 1042.93 610.07C1045.91 613.05 1016.11 614.84 1016.11 614.84L1020.28 580.84L1038.16 580.87Z" fill="#FFB9B9"/>
<path id="Vector_43" opacity="0.05" d="M1038.16 580.87C1038.16 580.87 1039.95 607.09 1042.93 610.07C1045.91 613.05 1016.11 614.84 1016.11 614.84L1020.28 580.84L1038.16 580.87Z" fill="black"/>
<path id="Vector_44" d="M1044.71 601.13C1044.71 601.13 1040.54 601.13 1025.64 608.88C1025.64 608.88 1015.51 607.09 1011.34 592.79C1011.34 592.79 998.83 614.24 990.48 615.43C982.13 616.62 966.05 617.81 976.77 632.12C987.49 646.43 1050.66 639.87 1050.66 639.87C1050.66 639.87 1052.46 605.3 1044.71 601.13Z" fill="#CBCDDA"/>
<path id="Vector_45" opacity="0.05" d="M1044.71 601.13C1044.71 601.13 1040.54 601.13 1025.64 608.88C1025.64 608.88 1015.51 607.09 1011.34 592.79C1011.34 592.79 998.83 614.24 990.48 615.43C982.13 616.62 966.05 617.81 976.77 632.12C987.49 646.43 1050.66 639.87 1050.66 639.87C1050.66 639.87 1052.46 605.3 1044.71 601.13Z" fill="black"/>
<path id="Vector_46" d="M1035.77 621.39L1031.6 632.71L1004.19 624.96L1005.75 613.72L1006.13 611.01L1007.13 603.51C1007.13 603.51 1030.37 597.51 1030.37 600.51C1030.68 602.967 1031.2 605.395 1031.9 607.77C1032.9 611.43 1034.05 615.61 1034.9 618.36C1035.42 620.2 1035.77 621.39 1035.77 621.39Z" fill="#FFB9B9"/>
<path id="Vector_47" d="M1020.82 465.98C1018.94 469.16 1016.82 475.12 1020.77 482.56C1021.94 484.714 1023.38 486.71 1025.05 488.5C1038.16 502.8 1041.74 534.98 1041.74 534.98V586.82L1032.8 587.51L1018.5 588.61L997 500.43C997 500.43 984.49 436.07 990.45 424.75C996.41 413.43 1001.77 342.52 1001.77 342.52L1006.72 337.4L1018.46 325.24H1052.46C1055.18 327.19 1057.43 329.712 1059.07 332.63C1064.77 342.07 1069.89 361.7 1054.25 397.94C1029.82 454.55 1022.67 463.49 1022.67 463.49C1021.96 464.247 1021.34 465.083 1020.82 465.98V465.98Z" fill="#4C4C78"/>
<path id="Vector_48" opacity="0.05" d="M1020.82 465.98C1018.94 469.16 1016.82 475.12 1020.77 482.56C1021.94 484.714 1023.38 486.71 1025.05 488.5C1038.16 502.8 1041.74 534.98 1041.74 534.98V586.82L1032.8 587.51L1018.5 588.61L997 500.43C997 500.43 984.49 436.07 990.45 424.75C996.41 413.43 1001.77 342.52 1001.77 342.52L1006.72 337.4L1018.46 325.24H1052.46C1055.18 327.19 1057.43 329.712 1059.07 332.63C1064.77 342.07 1069.89 361.7 1054.25 397.94C1029.82 454.55 1022.67 463.49 1022.67 463.49C1021.96 464.247 1021.34 465.083 1020.82 465.98V465.98Z" fill="black"/>
<path id="Vector_49" opacity="0.1" d="M1031.94 607.79L1006.13 611.01L1007.13 603.51C1007.13 603.51 1030.37 597.51 1030.37 600.51C1030.7 602.975 1031.22 605.409 1031.94 607.79V607.79Z" fill="black"/>
<path id="Vector_50" d="M1019.09 389.59C1019.09 389.59 1020.57 436.5 1020.82 465.98C1020.87 472.65 1020.82 478.43 1020.77 482.56C1020.81 484.75 1020.64 486.939 1020.29 489.1C1018.5 494.46 1022.08 506.38 1022.08 506.38C1036.98 545.71 1032.81 580.27 1032.81 580.27V606.49L1004.19 610.07C1004.19 610.07 1008.96 606.49 995.85 571.93C988.32 552.07 986.69 532.62 986.66 519.65C986.591 512.554 985.172 505.536 982.48 498.97C981.67 496.75 981.171 494.427 981 492.07C979.81 480.15 974.45 465.25 974.45 465.25C974.45 465.25 960.15 422.94 956.57 391.95C954.918 377.2 955.197 362.298 957.4 347.62C957.927 343.889 958.645 340.188 959.55 336.53C959.55 336.53 1017.8 299.87 1039.8 325.21C1041.93 327.685 1043.62 330.506 1044.8 333.55C1046.01 336.555 1046.95 339.66 1047.61 342.83C1054.37 376.49 1019.09 389.59 1019.09 389.59Z" fill="#4C4C78"/>
<path id="Vector_51" d="M1017.3 128.59C1034.08 128.59 1047.69 114.984 1047.69 98.2C1047.69 81.4161 1034.08 67.81 1017.3 67.81C1000.52 67.81 986.91 81.4161 986.91 98.2C986.91 114.984 1000.52 128.59 1017.3 128.59Z" fill="#FFB9B9"/>
<path id="Vector_52" d="M1000.62 117.26C1000.62 117.26 1013.13 152.42 1000.62 170.89C988.11 189.36 1040.54 183.4 1040.54 183.4L1060.8 158.97C1060.8 158.97 1036.96 158.97 1035.8 117.26C1034.64 75.55 1000.62 117.26 1000.62 117.26Z" fill="#FFB9B9"/>
<path id="Vector_53" opacity="0.1" d="M1060.8 339.53C1056.48 341.026 1052.04 342.14 1047.52 342.86C1040.1 344 1031.35 344.05 1026.23 339.53C1023.23 336.85 1015.72 336.53 1006.74 337.38C987.83 339.19 962.23 346.25 957.33 347.64C957.857 343.909 958.575 340.208 959.48 336.55C959.48 336.55 1017.73 299.89 1039.73 325.23H1052.44C1055.16 327.18 1057.41 329.702 1059.05 332.62C1060.16 337.36 1060.8 339.53 1060.8 339.53Z" fill="black"/>
<path id="Vector_54" opacity="0.1" d="M1035.77 621.39L1031.6 632.71L1004.19 624.96L1005.75 613.72C1010.46 624.14 1018.49 625.55 1018.49 625.55C1027.15 621.05 1032.19 619.16 1034.89 618.37C1035.42 620.2 1035.77 621.39 1035.77 621.39Z" fill="black"/>
<path id="Vector_55" d="M1037.56 618.41C1037.56 618.41 1033.39 618.41 1018.49 626.16C1018.49 626.16 1008.36 624.37 1004.19 610.07C1004.19 610.07 991.68 631.52 983.33 632.71C974.98 633.9 958.9 635.07 969.63 649.4C980.36 663.73 1043.52 657.15 1043.52 657.15C1043.52 657.15 1045.31 622.58 1037.56 618.41Z" fill="#CBCDDA"/>
<path id="Vector_56" d="M896.19 104.02C896.19 104.02 897.54 77.13 927.75 84.07L920 98.6L896.19 104.02Z" fill="#FFB9B9"/>
<path id="Vector_57" d="M1037 166.13C1037 166.13 1007.8 161.36 1000.05 155.4C1000.05 155.4 994.05 166.72 983.36 160.76C972.67 154.8 947.61 155.4 947.61 155.4C947.61 155.4 926.75 144.08 922.61 118.45C922.61 118.45 918.44 102.96 919.61 98.79C919.61 98.79 904.12 82.7 896.37 104.15C899.37 119.05 901.73 117.86 901.14 129.77L910.67 155.99C910.67 155.99 911.27 164.93 928.55 176.85C945.83 188.77 965.5 207.24 965.5 207.24C965.5 207.24 955.07 212.9 958.95 238.82C963.68 270.5 956.57 315.69 956.57 315.69V344.89C956.57 344.89 1016.16 327.61 1026.29 336.55C1036.42 345.49 1060.85 336.55 1060.85 336.55C1060.85 336.55 1057.85 326.42 1053.7 301.99C1049.55 277.56 1054.3 253.72 1054.3 253.72C1054.3 253.72 1069.79 212.6 1076.94 195.92C1084.09 179.24 1071.58 156.59 1059.06 148.25C1046.54 139.91 1041.89 144.92 1041.89 144.92C1041.89 144.92 1063.78 160.77 1037 166.13Z" fill="#FFC7A6"/>
<path id="Vector_58" opacity="0.1" d="M984.43 90.76C984.421 92.0004 984.631 93.2326 985.05 94.4C985.745 95.7277 986.692 96.9065 987.84 97.87C992.3 102.23 996.22 107.41 997.79 113.45C998.85 117.54 998.79 121.82 998.73 126.05C998.47 143.16 997.73 161.63 987.19 175.05C983.31 180 978.31 183.93 973.62 188.12C972.961 188.612 972.467 189.292 972.2 190.07C972.07 190.884 972.225 191.718 972.64 192.43C974.82 196.96 979.41 199.74 983.76 202.26C985.76 203.41 987.84 204.6 990.14 204.67C995.56 204.85 999.14 199.12 1004.07 196.87C1011.25 193.59 1019.3 198.15 1026.43 201.55C1031.59 204.006 1037 205.894 1042.57 207.18C1050.2 208.94 1058.82 209.37 1065.24 204.9C1068.95 202.285 1071.49 198.317 1072.3 193.85C1072.82 190.94 1072.74 187.56 1074.94 185.59C1076.08 184.59 1077.63 184.15 1078.85 183.25C1080.76 181.85 1081.66 179.5 1082.47 177.25L1089.81 157.18C1090.76 155.059 1091.24 152.762 1091.24 150.44C1090.89 145.61 1086.43 142.1 1081.96 140.24C1077.49 138.38 1072.54 137.47 1068.6 134.64C1061.95 129.86 1059.89 120.93 1059.29 112.76C1058.88 107.149 1058.92 101.514 1059.41 95.91C1060.14 87.6 1061.76 78.74 1058.06 71.26C1054.11 63.26 1045.25 59.19 1037.06 55.71C1033.91 54.37 1030.67 53.02 1027.25 52.87C1023.63 52.71 1020.11 53.87 1016.69 55.1C1011.25 56.99 1005.69 59.43 1000.12 60.71C996.97 61.43 993.51 60.89 990.47 62.03C979.3 66.23 984.43 81.77 984.43 90.76Z" fill="black"/>
<path id="Vector_59" d="M984.43 89.57C984.421 90.8104 984.631 92.0426 985.05 93.21C985.745 94.5377 986.692 95.7165 987.84 96.68C992.3 101.04 996.22 106.22 997.79 112.26C998.85 116.35 998.79 120.63 998.73 124.86C998.47 141.97 997.73 160.44 987.19 173.86C983.31 178.81 978.31 182.74 973.62 186.93C972.964 187.41 972.466 188.075 972.19 188.84C972.06 189.654 972.215 190.488 972.63 191.2C974.81 195.73 979.4 198.51 983.75 201.03C985.75 202.18 987.83 203.37 990.13 203.44C995.55 203.62 999.13 197.89 1004.06 195.64C1011.24 192.36 1019.29 196.92 1026.42 200.32C1031.58 202.776 1036.99 204.664 1042.56 205.95C1050.19 207.71 1058.81 208.14 1065.23 203.67C1068.94 201.055 1071.48 197.087 1072.29 192.62C1072.81 189.71 1072.73 186.33 1074.93 184.36C1076.07 183.36 1077.62 182.92 1078.84 182.02C1080.75 180.62 1081.65 178.27 1082.46 176.02L1089.8 155.95C1090.75 153.829 1091.23 151.532 1091.23 149.21C1090.88 144.38 1086.42 140.87 1081.95 139.01C1077.48 137.15 1072.53 136.24 1068.59 133.41C1061.94 128.63 1059.88 119.7 1059.28 111.53C1058.87 105.919 1058.91 100.284 1059.4 94.68C1060.13 86.37 1061.75 77.51 1058.05 70.03C1054.1 62.03 1045.24 57.96 1037.05 54.48C1033.9 53.14 1030.66 51.79 1027.24 51.64C1023.62 51.48 1020.1 52.64 1016.68 53.87C1011.24 55.76 1005.68 58.2 1000.11 59.48C996.96 60.2 993.5 59.66 990.46 60.8C979.3 65.07 984.43 80.58 984.43 89.57Z" fill="#8D5C40"/>
</g>
</g>
<defs>
<linearGradient id="paint0_linear" x1="424.5" y1="675" x2="424.5" y2="0" gradientUnits="userSpaceOnUse">
<stop stop-color="#808080" stop-opacity="0.25"/>
<stop offset="0.54" stop-color="#808080" stop-opacity="0.12"/>
<stop offset="1" stop-color="#808080" stop-opacity="0.1"/>
</linearGradient>
<linearGradient id="paint1_linear" x1="43548.5" y1="7281" x2="43548.5" y2="6656" gradientUnits="userSpaceOnUse">
<stop stop-color="#808080" stop-opacity="0.25"/>
<stop offset="0.54" stop-color="#808080" stop-opacity="0.12"/>
<stop offset="1" stop-color="#808080" stop-opacity="0.1"/>
</linearGradient>
<linearGradient id="paint2_linear" x1="627.5" y1="281" x2="627.5" y2="256" gradientUnits="userSpaceOnUse">
<stop stop-opacity="0.12"/>
<stop offset="0.55" stop-opacity="0.09"/>
<stop offset="1" stop-opacity="0.02"/>
</linearGradient>
<linearGradient id="paint3_linear" x1="59843" y1="5560" x2="59843" y2="5304" gradientUnits="userSpaceOnUse">
<stop stop-color="#4D5C99" stop-opacity="0.25"/>
<stop offset="0.54" stop-color="#808080" stop-opacity="0.12"/>
<stop offset="1" stop-color="#808080" stop-opacity="0.1"/>
</linearGradient>
<linearGradient id="paint4_linear" x1="191951" y1="5560" x2="191951" y2="5304" gradientUnits="userSpaceOnUse">
<stop stop-opacity="0.12"/>
<stop offset="0.55" stop-opacity="0.09"/>
<stop offset="1" stop-opacity="0.02"/>
</linearGradient>
<linearGradient id="paint5_linear" x1="191951" y1="5985" x2="191951" y2="5729" gradientUnits="userSpaceOnUse">
<stop stop-opacity="0.12"/>
<stop offset="0.55" stop-opacity="0.09"/>
<stop offset="1" stop-opacity="0.02"/>
</linearGradient>
<linearGradient id="paint6_linear" x1="191951" y1="6410" x2="191951" y2="6154" gradientUnits="userSpaceOnUse">
<stop stop-opacity="0.12"/>
<stop offset="0.55" stop-opacity="0.09"/>
<stop offset="1" stop-opacity="0.02"/>
</linearGradient>
<linearGradient id="paint7_linear" x1="191951" y1="6835" x2="191951" y2="6579" gradientUnits="userSpaceOnUse">
<stop stop-opacity="0.12"/>
<stop offset="0.55" stop-opacity="0.09"/>
<stop offset="1" stop-opacity="0.02"/>
</linearGradient>
<linearGradient id="paint8_linear" x1="191951" y1="7260" x2="191951" y2="7004" gradientUnits="userSpaceOnUse">
<stop stop-opacity="0.12"/>
<stop offset="0.55" stop-opacity="0.09"/>
<stop offset="1" stop-opacity="0.02"/>
</linearGradient>
<linearGradient id="paint9_linear" x1="191951" y1="7260" x2="191951" y2="7004" gradientUnits="userSpaceOnUse">
<stop stop-opacity="0.12"/>
<stop offset="0.55" stop-opacity="0.09"/>
<stop offset="1" stop-opacity="0.02"/>
</linearGradient>
<linearGradient id="paint10_linear" x1="59843" y1="5985" x2="59843" y2="5729" gradientUnits="userSpaceOnUse">
<stop stop-color="#808080" stop-opacity="0.25"/>
<stop offset="0.54" stop-color="#808080" stop-opacity="0.12"/>
<stop offset="1" stop-color="#808080" stop-opacity="0.1"/>
</linearGradient>
<linearGradient id="paint11_linear" x1="59843" y1="6410" x2="59843" y2="6154" gradientUnits="userSpaceOnUse">
<stop stop-color="#808080" stop-opacity="0.25"/>
<stop offset="0.54" stop-color="#808080" stop-opacity="0.12"/>
<stop offset="1" stop-color="#808080" stop-opacity="0.1"/>
</linearGradient>
<linearGradient id="paint12_linear" x1="59843" y1="6835" x2="59843" y2="6579" gradientUnits="userSpaceOnUse">
<stop stop-color="#808080" stop-opacity="0.25"/>
<stop offset="0.54" stop-color="#808080" stop-opacity="0.12"/>
<stop offset="1" stop-color="#808080" stop-opacity="0.1"/>
</linearGradient>
<linearGradient id="paint13_linear" x1="59843" y1="7260" x2="59843" y2="7004" gradientUnits="userSpaceOnUse">
<stop stop-color="#4D5C99" stop-opacity="0.25"/>
<stop offset="0.54" stop-color="#808080" stop-opacity="0.12"/>
<stop offset="1" stop-color="#808080" stop-opacity="0.1"/>
</linearGradient>
<linearGradient id="paint14_linear" x1="373849" y1="487986" x2="373849" y2="113022" gradientUnits="userSpaceOnUse">
<stop stop-color="#808080" stop-opacity="0.25"/>
<stop offset="0.54" stop-color="#808080" stop-opacity="0.12"/>
<stop offset="1" stop-color="#808080" stop-opacity="0.1"/>
</linearGradient>
</defs>
</svg>
