<svg class="carrierlogo" viewBox="0 0 90 107" fill="none" xmlns="http://www.w3.org/2000/svg">
<g clip-path="url(#clip0)">
<path d="M45 106.941C45 106.941 19.8715 96.0217 12.1074 89.8805C3.88426 83.058 0 73.7297 0 63.0343V9.80324C19.8715 -0.892192 45 0.0177773 45 0.0177773C45 0.0177773 70.1285 -0.892192 90 9.80324V62.8101C90 73.5011 86.1157 82.8294 77.8926 89.6563C70.1285 96.0217 45 106.941 45 106.941ZM3.65473 63.0343C3.65473 73.0439 7.30947 81.2336 14.3894 86.9221C20.7852 92.1533 39.743 100.572 45 102.849C50.2526 100.572 69.4399 91.9291 75.6106 86.9221C82.6905 81.2336 86.3453 72.8153 86.3453 63.0343V10.7132C59.8485 8.2075 28.3242 9.57465 3.65473 32.3239V63.0343Z" fill="white"/>
<path d="M70.3537 55.5301C73.7789 57.5786 75.1516 58.9414 75.3811 61.4471C75.3811 64.177 73.5538 65.7683 70.5832 65.7683C68.0717 65.7683 65.1011 64.4012 63.0442 62.5812V69.861C65.5557 71.2281 68.5263 72.3623 71.7264 72.3623C79.4949 72.3623 83.1496 66.9025 83.1496 61.8955C83.3792 57.3456 82.0064 53.7057 75.3811 49.8373C72.4106 48.0173 70.1286 46.8788 70.1286 44.1489C70.1286 41.4189 72.6401 40.2804 74.697 40.2804C77.438 40.2804 80.1791 41.8717 81.7769 43.4675V36.6449C80.4042 35.5063 77.438 33.915 73.0947 34.1436C67.8421 34.3722 62.36 38.0121 62.36 44.3818C62.5896 48.7031 63.9579 51.8902 70.3537 55.5301ZM43.4022 71.9095C44.0864 72.1381 45.2296 72.3667 47.057 72.3667C55.9643 72.3667 60.9917 64.4056 60.9917 53.0287C60.9917 41.4277 55.7391 34.3722 46.3728 34.3722C42.0339 34.3722 38.6043 35.2822 35.6381 37.1021V88.5175H43.4066V71.9095H43.4022ZM43.4022 40.9706C44.0864 40.742 45.2296 40.2892 46.1433 40.2892C50.7117 40.2892 52.5391 43.9291 52.5391 52.8002C52.5391 61.4471 50.2526 65.5397 45.6842 65.5397C44.541 65.5397 43.6273 65.3111 43.1727 65.0825V40.9706H43.4022ZM19.4169 72.3623C24.2149 72.3623 28.3242 71.2237 31.2948 69.1752V34.825H23.3012V64.6254C22.3875 65.3067 21.2443 65.5353 19.6465 65.5353C15.9917 65.5353 15.5327 62.124 15.5327 60.0755V34.825H7.53906V59.6227C7.53906 68.041 11.6484 72.3623 19.4169 72.3623Z" fill="white"/>
</g>
<defs>
<clipPath id="clip0">
<rect width="90" height="106.941" fill="white"/>
</clipPath>
</defs>
</svg>
