<svg width="143" height="90" viewBox="0 0 143 90" fill="none" xmlns="http://www.w3.org/2000/svg">
<path d="M86.8688 20.8334C76.8 19.4627 22.4191 19.9553 14.4269 20.0338L0 89.9999C22.0844 78.3841 41.7438 68.3604 63.6164 57.4514C91.425 43.5867 110.552 40.0313 114.52 39.8314C117.191 39.6957 115.675 38.482 114.411 38.1893C98.8776 34.6125 61.2119 52.8679 61.2119 52.8679L52.9806 26.7663L106.61 26.8163C103.646 22.2399 97.7437 22.3113 86.8688 20.8334Z" fill="white"/>
<path d="M23.0395 0C47.4118 5.62143 71.7841 11.2429 96.1563 16.8786C107.874 19.5965 109.374 23.8126 109.374 23.8126C109.374 23.8126 122.199 22.1861 124.548 26.873C127.562 32.8797 119.85 44.3009 119.85 44.3009L9 90H124.12L143 0H23.0395Z" fill="white"/>
<path d="M106.823 27.2742C106.823 27.2742 106.273 30.3307 94.8701 31.2712C93.8236 31.3585 93.5722 32.0169 94.9516 32.0639C96.3311 32.1042 115.392 31.4593 117.512 31.6608C119.639 31.8691 119.354 33.132 119.082 34.3613C118.81 35.5907 117.376 39.2652 117.009 40.1318C116.642 40.9984 117.342 40.9783 117.906 40.414C118.464 39.8497 121.888 33.0514 121.99 31.4392C122.085 29.8336 121.508 28.1609 118.858 27.5832C116.208 26.9988 106.823 27.2742 106.823 27.2742Z" fill="white"/>
</svg>
